<svg xmlns="http://www.w3.org/2000/svg" viewBox="0 0 47 47" width="47" height="47">
	<style>
		tspan { white-space:pre }
		.shp0 { fill: #004cff } 
		.shp1 { fill: #ffffff } 
	</style>
	<path class="shp0" d="M12 0.9L35.51 0.9C41.73 0.9 46.76 5.93 46.76 12.15L46.76 35.66C46.76 41.88 41.73 46.91 35.51 46.91L12 46.91C5.78 46.91 0.75 41.88 0.75 35.66L0.75 12.15C0.75 5.93 5.78 0.9 12 0.9Z" />
	<path class="shp1" d="M23.26 27.36L16.6 34L14.55 31.96L23.26 23.25L31.97 31.96L29.92 34L23.26 27.36ZM23.26 18.16L16.6 24.8L14.55 22.76L23.26 14.05L31.97 22.76L29.92 24.8L23.26 18.16Z" />
</svg>